<svg xmlns="http://www.w3.org/2000/svg" width="420" height="120" viewBox="0 0 420 120" role="img" aria-label="La Paradita Caf&#233;">
  <g fill="none" stroke="#0B3B57" stroke-width="6" stroke-linecap="round" stroke-linejoin="round">
    <path d="M32 40h74l-8 46a20 20 0 0 1-20 16H60a20 20 0 0 1-20-16z" />
    <path d="M106 50h18a16 16 0 0 1 0 32h-14" />
    <path d="M50 26c-10 -10 -4 -20 4 -26" />
    <path d="M74 26c-10 -10 -4 -20 4 -26" />
    <path d="M62 20c-8 -8 -3 -18 5 -24" />
  </g>
  <path d="M28 98h98" stroke="#F2E08A" stroke-width="6" stroke-linecap="round" />
  <text x="140" y="60" font-family="Playfair Display, serif" font-size="38" font-weight="600" fill="#0B3B57">La Paradita</text>
  <text x="140" y="92" font-family="Manrope, sans-serif" font-size="20" font-weight="600" fill="#0B3B57" letter-spacing="1">CAF&#201;</text>
</svg>
